<?xml version="1.0" encoding="UTF-8"?>
<!-- Generated by Pixelmator Pro 3.0.1 -->
<svg width="10000" height="10000" viewBox="0 0 10000 10000" xmlns="http://www.w3.org/2000/svg" xmlns:xlink="http://www.w3.org/1999/xlink">
    <path id="plug-ffffff" fill="#ffffff" fill-rule="evenodd" stroke="none" d="M 4771 18870 C 4771.223633 18869.589844 4771 16525.015625 4771 16401 C 4771 15147.075195 4771 8173 4771 8173 C 4771 8173 4587 8173 4587 8173 C 4587 8173 4587 6388.999023 4587 6388.999023 C 4587 6388.999023 4452 6388.999023 4452 6388.999023 C 4452 6388.999023 4452 3554.999512 4452 3554.999512 C 4452 3554.999512 4679 3554.999512 4679 3554.999512 C 4679 3554.999512 4679 2686 4679 2686 C 4679 2686 5321 2686 5321 2686 C 5321 2686 5321 3554.999512 5321 3554.999512 C 5321 3554.999512 5548 3554.999512 5548 3554.999512 C 5548 3554.999512 5548 6388.999023 5548 6388.999023 C 5548 6388.999023 5410 6388.999023 5410 6388.999023 C 5410 6388.999023 5410 8173 5410 8173 C 5410 8173 5229 8173 5229 8173 C 5229 8173 5229 15147.075195 5229 16401 C 5229 16525.015625 5229 18870 5229 18870 C 5229 18870 4771 18870 4771 18870 Z M 5321 2593.999512 C 5322.595215 2593.574219 4679 2593.999512 4679 2593.999512 C 4679 2593.999512 4679 2182.999512 4679 2182.999512 C 4679 2182.999512 5321 2182.999512 5321 2182.999512 C 5321 2182.999512 5321 2593.999512 5321 2593.999512 Z M 4679 2090.999512 C 4678.661133 2090.484375 4679 1999.000488 4679 1999.000488 C 4679 1999.000488 4771 1956.000488 4771 1956.000488 C 4771 1956.000488 4771 1587 4771 1587 C 4771 1587 4771 1314 4771 1314 C 4771 1314 4952 1130.000977 4952 1130.000977 C 4952 1130.000977 5045 1130.000977 5045 1130.000977 C 5045 1130.000977 5229 1314 5229 1314 C 5229 1314 5229 1587 5229 1587 C 5229 1587 5229 1956.000488 5229 1956.000488 C 5229 1956.000488 5321 1999.000488 5321 1999.000488 C 5321 1999.000488 5321 2090.999512 5321 2090.999512 C 5321 2090.999512 4679 2090.999512 4679 2090.999512 Z"/>
    <path id="plug-000000" fill="#000000" fill-rule="evenodd" stroke="none" d="M 4771 18870 C 4771.223633 18869.589844 4771 16525.015625 4771 16401 C 4771 15147.075195 4771 8173 4771 8173 C 4771 8173 4587 8173 4587 8173 C 4587 8173 4587 6388.999023 4587 6388.999023 C 4587 6388.999023 4452 6388.999023 4452 6388.999023 C 4452 6388.999023 4452 3554.999512 4452 3554.999512 C 4452 3554.999512 4679 3554.999512 4679 3554.999512 C 4679 3554.999512 4679 2686 4679 2686 C 4679 2686 5321 2686 5321 2686 C 5321 2686 5321 3554.999512 5321 3554.999512 C 5321 3554.999512 5548 3554.999512 5548 3554.999512 C 5548 3554.999512 5548 6388.999023 5548 6388.999023 C 5548 6388.999023 5410 6388.999023 5410 6388.999023 C 5410 6388.999023 5410 8173 5410 8173 C 5410 8173 5229 8173 5229 8173 C 5229 8173 5229 15147.075195 5229 16401 C 5229 16525.015625 5229 18870 5229 18870 C 5229 18870 4771 18870 4771 18870 Z M 5321 2593.999512 C 5322.595215 2593.574219 4679 2593.999512 4679 2593.999512 C 4679 2593.999512 4679 2182.999512 4679 2182.999512 C 4679 2182.999512 5321 2182.999512 5321 2182.999512 C 5321 2182.999512 5321 2593.999512 5321 2593.999512 Z M 4679 2090.999512 C 4678.661133 2090.484375 4679 1999.000488 4679 1999.000488 C 4679 1999.000488 4771 1956.000488 4771 1956.000488 C 4771 1956.000488 4771 1587 4771 1587 C 4771 1587 4771 1314 4771 1314 C 4771 1314 4952 1130.000977 4952 1130.000977 C 4952 1130.000977 5045 1130.000977 5045 1130.000977 C 5045 1130.000977 5229 1314 5229 1314 C 5229 1314 5229 1587 5229 1587 C 5229 1587 5229 1956.000488 5229 1956.000488 C 5229 1956.000488 5321 1999.000488 5321 1999.000488 C 5321 1999.000488 5321 2090.999512 5321 2090.999512 C 5321 2090.999512 4679 2090.999512 4679 2090.999512 Z"/>
    <path id="plug-212121" fill="#212121" fill-rule="evenodd" stroke="none" d="M 4771 18870 C 4771.223633 18869.589844 4771 16525.015625 4771 16401 C 4771 15147.075195 4771 8173 4771 8173 C 4771 8173 4587 8173 4587 8173 C 4587 8173 4587 6388.999023 4587 6388.999023 C 4587 6388.999023 4452 6388.999023 4452 6388.999023 C 4452 6388.999023 4452 3554.999512 4452 3554.999512 C 4452 3554.999512 4679 3554.999512 4679 3554.999512 C 4679 3554.999512 4679 2686 4679 2686 C 4679 2686 5321 2686 5321 2686 C 5321 2686 5321 3554.999512 5321 3554.999512 C 5321 3554.999512 5548 3554.999512 5548 3554.999512 C 5548 3554.999512 5548 6388.999023 5548 6388.999023 C 5548 6388.999023 5410 6388.999023 5410 6388.999023 C 5410 6388.999023 5410 8173 5410 8173 C 5410 8173 5229 8173 5229 8173 C 5229 8173 5229 15147.075195 5229 16401 C 5229 16525.015625 5229 18870 5229 18870 C 5229 18870 4771 18870 4771 18870 Z M 5321 2593.999512 C 5322.595215 2593.574219 4679 2593.999512 4679 2593.999512 C 4679 2593.999512 4679 2182.999512 4679 2182.999512 C 4679 2182.999512 5321 2182.999512 5321 2182.999512 C 5321 2182.999512 5321 2593.999512 5321 2593.999512 Z M 4679 2090.999512 C 4678.661133 2090.484375 4679 1999.000488 4679 1999.000488 C 4679 1999.000488 4771 1956.000488 4771 1956.000488 C 4771 1956.000488 4771 1587 4771 1587 C 4771 1587 4771 1314 4771 1314 C 4771 1314 4952 1130.000977 4952 1130.000977 C 4952 1130.000977 5045 1130.000977 5045 1130.000977 C 5045 1130.000977 5229 1314 5229 1314 C 5229 1314 5229 1587 5229 1587 C 5229 1587 5229 1956.000488 5229 1956.000488 C 5229 1956.000488 5321 1999.000488 5321 1999.000488 C 5321 1999.000488 5321 2090.999512 5321 2090.999512 C 5321 2090.999512 4679 2090.999512 4679 2090.999512 Z"/>
</svg>
